#!OML:ASF E:\acrobat2\Project_11_07_03\Capture day 1\Session 1\Acrobat.ASF
:FULLY-SPECIFIED
:DEGREES
421
root 10.7118 9.3936 12.9247 -22.0267 -0.871342 -179.896
lowerback 33.529 -0.693428 1.23032
upperback 20.9711 -0.418764 -3.51716
thorax 5.83571 1.66925 -4.11468
lowerneck 1.37423 -1.10325 -0.307431
upperneck 18.4196 -1.10175 -0.0771037
head 5.31692 -0.204361 0.0152297
rclavicle -6.75868e-015 1.39149e-014
rhumerus 58.9856 -13.4055 -80.3196
rradius 109.194
rwrist 20.0408
rhand -39.6926 -89.7969
rfingers 7.12502
rthumb -12.6715 -240.607
lclavicle -6.75868e-015 1.39149e-014
lhumerus 67.6855 12.2831 72.6653
lradius 108.632
lwrist -7.40828
lhand -58.3685 91.1393
lfingers 7.12502
lthumb -30.5973 -63.6618
rfemur -45.2133 9.30596 -45.8158
rtibia -4.58711
rfoot -54.5793 -31.2755
rtoes 32.7213
lfemur -41.651 -0.390527 43.0859
ltibia -1.80364
lfoot -44.1382 -1.28304
ltoes 49.2413
422
root 10.7236 9.1993 12.6261 -19.0322 -0.65714 -179.912
lowerback 32.3688 -0.81395 1.12066
upperback 20.854 -0.480427 -3.55198
thorax 6.11764 1.62771 -4.078
lowerneck 1.64957 -1.21573 -1.26006
upperneck 18.0937 -1.33212 0.804251
head 5.18288 -0.323338 0.441747
rclavicle 1.59028e-014 7.95139e-015
rhumerus 59.2319 -13.3147 -80.4424
rradius 109.416
rwrist 20.3333
rhand -39.5869 -89.0837
rfingers 7.12502
rthumb -12.5696 -241.314
lclavicle 1.59028e-014 7.95139e-015
lhumerus 68.2772 12.4013 73.0124
lradius 108.679
lwrist -7.6149
lhand -58.3439 92.4806
lfingers 7.12502
lthumb -30.5739 -64.9988
rfemur -45.5112 8.09499 -46.6452
rtibia -4.31739
rfoot -55.3881 -31.3448
rtoes 31.1971
lfemur -42.4881 0.039802 44.1515
ltibia -1.18886
lfoot -45.1764 -1.64919
ltoes 49.0462
423
root 10.736 9.0042 12.328 -15.8076 -0.410552 -179.868
lowerback 31.0335 0.278004 1.8964
upperback 20.7781 0.480705 -2.81098
thorax 6.62502 -0.853414 -4.26594
lowerneck 1.88665 -1.3314 -2.02209
upperneck 17.8293 -1.63402 2.12138
head 5.08008 -0.435419 0.969385
rclavicle -1.19271e-015 1.98785e-015
rhumerus 59.3886 -13.6105 -80.6058
rradius 109.767
rwrist 20.3765
rhand -39.0341 -88.6968
rfingers 7.12502
rthumb -12.0366 -241.669
lclavicle -1.19271e-015 1.98785e-015
lhumerus 69.1265 12.198 73.4384
lradius 108.815
lwrist -7.68775
lhand -58.1913 93.5036
lfingers 7.12502
lthumb -30.4284 -65.9948
rfemur -45.8694 6.58204 -47.5592
rtibia -4.02353
rfoot -55.9337 -31.5116
rtoes 30.3117
lfemur -43.4889 0.763872 45.2036
ltibia -0.418631
lfoot -45.9814 -1.92091
ltoes 48.776
424
root 10.7537 8.77631 12.0183 -13.349 -1.10852 -179.714
lowerback 30.9904 0.73621 1.78911
upperback 20.5926 0.864067 -2.96083
thorax 6.4631 -0.716905 -4.45385
lowerneck 2.155 -1.28481 -2.63296
upperneck 17.3943 -1.75832 3.75294
head 4.91779 -0.440121 1.57547
rclavicle 6.75868e-015 -5.1684e-015
rhumerus 59.592 -13.9842 -80.9249
rradius 110.007
rwrist 20.2761
rhand -38.7281 -87.9437
rfingers 7.12502
rthumb -11.7415 -242.405
lclavicle 6.75868e-015 -5.1684e-015
lhumerus 69.8157 11.8924 73.8318
lradius 108.863
lwrist -7.96152
lhand -58.1578 94.9588
lfingers 7.12502
lthumb -30.3964 -67.444
rfemur -46.9241 6.41398 -48.1771
rtibia -3.49648
rfoot -56.2073 -31.9147
rtoes 29.6275
lfemur -43.0221 3.30008 44.2106
ltibia 0.668505
lfoot -43.6379 -2.554
ltoes 49.167
425
root 10.7633 8.54401 11.7322 -10.6765 -1.29704 -179.957
lowerback 30.3544 -0.680194 1.18982
upperback 20.3681 0.123102 -3.94054
thorax 6.37584 2.00809 -4.66032
lowerneck 2.35444 -1.42203 -2.84293
upperneck 17.5483 -1.91464 3.78291
head 4.94003 -0.508227 1.61792
rclavicle 1.55052e-014 -3.33958e-014
rhumerus 60.0215 -14.0959 -81.1956
rradius 109.899
rwrist 20.4053
rhand -38.7378 -86.3645
rfingers 7.12502
rthumb -11.7509 -243.985
lclavicle 1.55052e-014 -3.33958e-014
lhumerus 70.4074 11.7182 74.209
lradius 108.649
lwrist -8.32618
lhand -58.1283 96.8778
lfingers 7.12502
lthumb -30.3682 -69.3578
rfemur -47.2084 5.79244 -48.4601
rtibia -3.21429
rfoot -56.5069 -31.8096
rtoes 29.9511
lfemur -43.6426 6.9182 42.5339
ltibia 1.90627
lfoot -40.2716 -0.205017
ltoes 47.4726
426
root 10.7685 8.30893 11.4555 -7.79513 -1.62786 -180.368
lowerback 29.3498 -0.696318 1.56623
upperback 20.2405 0.290879 -3.96802
thorax 6.64458 2.12981 -4.92394
lowerneck 1.99859 -1.40801 -2.50948
upperneck 17.9819 -1.85396 3.58857
head 5.12748 -0.445485 1.50588
rclavicle -1.47101e-014 2.38542e-015
rhumerus 60.5903 -14.0578 -81.2946
rradius 109.478
rwrist 21.2148
rhand -38.96 -84.8466
rfingers 7.12502
rthumb -11.9651 -245.515
lclavicle -1.47101e-014 2.38542e-015
lhumerus 71.1142 11.6314 74.6043
lradius 108.421
lwrist -8.35555
lhand -57.8308 98.5606
lfingers 7.12502
lthumb -30.0845 -70.9886
rfemur -47.6923 4.94665 -48.5436
rtibia -2.89729
rfoot -56.8761 -31.3246
rtoes 31.1972
lfemur -44.1097 9.35317 42.4145
ltibia 1.79868
lfoot -32.3188 -22.8083
ltoes 56.6526
427
root 10.7687 8.07221 11.1785 -4.81366 -1.40774 -180.631
lowerback 28.2012 -0.922632 1.90027
upperback 19.9774 0.142419 -4.15663
thorax 6.79663 2.06456 -5.27618
lowerneck 2.5288 -1.47069 -2.47181
upperneck 18.0748 -1.94333 3.88912
head 5.07228 -0.443691 1.59606
rclavicle 3.97569e-015 1.66979e-014
rhumerus 60.8518 -14.288 -81.4463
rradius 109.474
rwrist 21.2087
rhand -39.5177 -84.1882
rfingers 7.12502
rthumb -12.5029 -246.206
lclavicle 3.97569e-015 1.66979e-014
lhumerus 71.5511 11.7699 74.6127
lradius 108.238
lwrist -8.41364
lhand -57.7209 100.034
lfingers 7.12502
lthumb -29.9796 -72.4431
rfemur -47.6204 3.79194 -48.8601
rtibia -2.68414
rfoot -57.3238 -30.233
rtoes 33.2812
lfemur -45.3859 12.5983 40.8272
ltibia 3.61938
lfoot -30.6135 -19.5037
ltoes 56.8304
428
root 10.7866 7.79817 10.8801 -2.72627 -2.63412 -180.674
lowerback 28.7078 -0.509067 1.42313
upperback 19.7486 0.749064 -4.4031
thorax 6.39301 2.38856 -5.40615
lowerneck 3.08581 -1.57317 -2.98744
upperneck 17.7856 -2.12699 4.53827
head 4.90607 -0.52302 1.88149
rclavicle 2.38542e-014 -3.77691e-014
rhumerus 61.0952 -14.8578 -81.5566
rradius 109.887
rwrist 20.3921
rhand -39.7834 -83.6348
rfingers 7.12502
rthumb -12.7589 -246.775
lclavicle 2.38542e-014 -3.77691e-014
lhumerus 72.3296 11.8285 74.8134
lradius 107.934
lwrist -8.87919
lhand -58.0033 101.104
lfingers 7.12502
lthumb -30.249 -73.5618
rfemur -48.8943 4.32223 -49.13
rtibia -2.13434
rfoot -57.2148 -30.1968
rtoes 33.062
lfemur -44.2561 15.0833 39.8438
ltibia 6.20256
lfoot -33.1444 -0.685365
ltoes 47.9435
429
root 10.7952 7.52426 10.5935 -0.409712 -2.46742 -180.834
lowerback 28.8252 -0.718577 1.39567
upperback 19.5882 0.598036 -4.50204
thorax 6.14613 2.34133 -5.46605
lowerneck 3.49593 -1.60258 -3.60322
upperneck 17.5346 -2.19607 5.02799
head 4.77326 -0.566635 2.13696
rclavicle -8.74653e-015 1.59028e-014
rhumerus 61.4205 -15.246 -81.6046
rradius 110.115
rwrist 19.7649
rhand -39.3191 -82.7082
rfingers 7.12502
rthumb -12.3113 -247.674
lclavicle -8.74653e-015 1.59028e-014
lhumerus 73.1173 12.1286 75.0597
lradius 107.672
lwrist -9.21511
lhand -58.2748 101.607
lfingers 7.12502
lthumb -30.508 -74.1128
rfemur -48.6046 4.0374 -49.3799
rtibia -1.99521
rfoot -56.4776 -31.4844
rtoes 30.3196
lfemur -45.2707 17.6996 37.8972
ltibia 8.00194
lfoot -29.9056 -0.849404
ltoes 48.405
430
root 10.8147 7.2482 10.3023 2.00293 -2.59254 -180.55
lowerback 28.9215 -0.704068 0.591362
upperback 19.4305 0.573923 -4.65412
thorax 5.92717 2.29476 -5.18655
lowerneck 3.32189 -1.58253 -3.61692
upperneck 17.4729 -2.12945 4.86157
head 4.77943 -0.545876 2.08756
rclavicle -1.35174e-014 -2.98177e-014
rhumerus 61.9357 -15.5179 -81.5766
rradius 110.296
rwrist 19.4283
rhand -39.2888 -82.0678
rfingers 7.12502
rthumb -12.2821 -248.313
lclavicle -1.35174e-014 -2.98177e-014
lhumerus 73.8384 12.6448 75.2268
lradius 107.652
lwrist -9.34198
lhand -58.4851 101.96
lfingers 7.12502
lthumb -30.7085 -74.5035
rfemur -48.9781 3.62847 -50.2259
rtibia -1.21231
rfoot -56.1603 -31.7231
rtoes 28.9321
lfemur -45.7937 19.6366 36.3198
ltibia 9.54129
lfoot -27.7716 -0.319875
ltoes 47.5336
431
root 10.8331 6.96233 10.015 4.49334 -2.94725 -180.379
lowerback 29.0221 -0.566237 0.140136
upperback 19.637 0.854196 -5.06733
thorax 6.15065 2.5426 -5.4294
lowerneck 1.63207 -1.76866 -2.17201
upperneck 17.4902 -2.34436 4.24021
head 5.05377 -0.61265 1.63021
rclavicle -2.38542e-015 -1.51076e-014
rhumerus 63.248 -16.3415 -82.1568
rradius 110.363
rwrist 19.5901
rhand -39.83 -81.6573
rfingers 7.12502
rthumb -12.8039 -248.755
lclavicle -2.38542e-015 -1.51076e-014
lhumerus 75.7564 12.5422 75.2747
lradius 107.354
lwrist -9.52462
lhand -58.743 101.362
lfingers 7.12502
lthumb -30.9544 -73.9519
rfemur -48.8786 3.54914 -50.6679
rtibia -1.47645
rfoot -54.7826 -33.5726
rtoes 25.8809
lfemur -45.8267 21.0337 35.5133
ltibia 10.6713
lfoot -26.3777 0.00935038
ltoes 46.6883
432
root 10.8411 6.671 9.73561 7.01154 -3.31223 -180.655
lowerback 29.0613 -0.56819 -0.0824348
upperback 19.1626 0.887597 -5.16621
thorax 5.60514 2.5111 -5.43314
lowerneck 2.67705 -1.58497 -2.04762
upperneck 17.283 -2.04027 4.20679
head 4.80393 -0.447832 1.61721
rclavicle 2.14687e-014 1.11319e-014
rhumerus 63.2977 -16.1905 -82.2182
rradius 110.253
rwrist 19.5568
rhand -39.8608 -81.0367
rfingers 7.12502
rthumb -12.8336 -249.378
lclavicle 2.14687e-014 1.11319e-014
lhumerus 75.9361 12.8758 75.2245
lradius 107.043
lwrist -9.51391
lhand -58.7486 100.004
lfingers 7.12502
lthumb -30.9597 -72.5953
rfemur -49.4742 3.2074 -50.8523
rtibia -0.723025
rfoot -54.7733 -32.0885
rtoes 29.0273
lfemur -45.7567 22.3217 35.3015
ltibia 11.7567
lfoot -25.2309 -0.2845
ltoes 46.4007
